<svg width="600" height="280" viewBox="0 0 600 280" xmlns="http://www.w3.org/2000/svg" font-family="monospace" font-size="14" style="background-color: #1e1e1e; color: #d4d4d4; border-radius: 8px; border: 1px solid #333;">
  <!-- Clock -->
  <text x="15" y="60" fill="#d4d4d4">wb_clk_i</text>
  <path d="M 110 65 h 10 v -15 h 20 v 15 h 20 v -15 h 20 v 15 h 20 v -15 h 20 v 15 h 20 v -15 h 20 v 15 h 20 v -15 h 20 v 15 h 20 v -15 h 20 v 15 h 20 v -15 h 20 v 15 h 10" fill="none" stroke="#d4d4d4" stroke-width="1.5"/>
  <!-- ADR -->
  <text x="15" y="90" fill="#d4d4d4">wbs_adr_i</text>
  <path d="M 110 87.5 h 48" fill="none" stroke="#d4d4d4" stroke-width="1.5"/>
  <polygon points="158,87.5 162,80 318,80 322,87.5 318,95 162,95" fill="#333" stroke="#d4d4d4" stroke-width="1.5"/>
  <text x="240" y="92" fill="#d4d4d4" text-anchor="middle" font-family="sans-serif" font-size="12">ADR1</text>
  <path d="M 322 87.5 h 108" fill="none" stroke="#d4d4d4" stroke-width="1.5"/>
  <!-- DAT_I -->
  <text x="15" y="120" fill="#d4d4d4">wbs_dat_i</text>
  <path d="M 110 117.5 h 48" fill="none" stroke="#d4d4d4" stroke-width="1.5"/>
  <polygon points="158,117.5 162,110 318,110 322,117.5 318,125 162,125" fill="#333" stroke="#d4d4d4" stroke-width="1.5"/>
  <text x="240" y="122" fill="#d4d4d4" text-anchor="middle" font-family="sans-serif" font-size="12">DAT1</text>
  <path d="M 322 117.5 h 108" fill="none" stroke="#d4d4d4" stroke-width="1.5"/>
  <!-- CYC -->
  <text x="15" y="150" fill="#d4d4d4">wbs_cyc_i</text>
  <path d="M 110 155 h 48 l 4 -15 h 156 l 4 15 h 108" fill="none" stroke="#d4d4d4" stroke-width="1.5"/>
  <!-- STB -->
  <text x="15" y="180" fill="#d4d4d4">wbs_stb_i</text>
  <path d="M 110 185 h 48 l 4 -15 h 156 l 4 15 h 108" fill="none" stroke="#d4d4d4" stroke-width="1.5"/>
  <!-- WE -->
  <text x="15" y="210" fill="#d4d4d4">wbs_we_i</text>
  <path d="M 110 215 h 48 l 4 -15 h 156 l 4 15 h 108" fill="none" stroke="#d4d4d4" stroke-width="1.5"/>
  <!-- ACK -->
  <text x="15" y="240" fill="#d4d4d4">wbs_ack_o</text>
  <path d="M 110 245 h 168 l 4 -15 h 36 l 4 15 h 108" fill="none" stroke="#d4d4d4" stroke-width="1.5"/>
</svg>
