<svg width="600" height="340" viewBox="0 0 600 340" xmlns="http://www.w3.org/2000/svg" font-family="monospace" font-size="14" style="background-color: #1e1e1e; color: #d4d4d4; border-radius: 8px; border: 1px solid #333;">
  <!-- Clock -->
  <text x="15" y="55" fill="#d4d4d4">wb_clk_i</text>
  <path d="M 110 65 h 10 v -15 h 20 v 15 h 20 v -15 h 20 v 15 h 20 v -15 h 20 v 15 h 20 v -15 h 20 v 15 h 20 v -15 h 20 v 15 h 20 v -15 h 20 v 15 h 20 v -15 h 20 v 15 h 20 v -15 h 20 v 15 h 10" fill="none" stroke="#d4d4d4" stroke-width="1.5"/>
  
  <!-- ADR -->
  <text x="15" y="95" fill="#d4d4d4">wbs_adr_i</text>
  <path d="M 110 100 h 48" fill="none" stroke="#d4d4d4" stroke-width="1.5"/>
  <polygon points="158,100 162,92 318,92 322,100 318,108 162,108" fill="#333" stroke="#d4d4d4" stroke-width="1.5"/>
  <text x="240" y="104" fill="#d4d4d4" text-anchor="middle" font-family="sans-serif" font-size="12">ADR1</text>
  <path d="M 322 100 h 108" fill="none" stroke="#d4d4d4" stroke-width="1.5"/>
  
  <!-- DAT_I -->
  <text x="15" y="135" fill="#d4d4d4">wbs_dat_i</text>
  <path d="M 110 140 h 48" fill="none" stroke="#d4d4d4" stroke-width="1.5"/>
  <polygon points="158,140 162,132 318,132 322,140 318,148 162,148" fill="#333" stroke="#d4d4d4" stroke-width="1.5"/>
  <text x="240" y="144" fill="#d4d4d4" text-anchor="middle" font-family="sans-serif" font-size="12">DAT1</text>
  <path d="M 322 140 h 108" fill="none" stroke="#d4d4d4" stroke-width="1.5"/>
  
  <!-- CYC -->
  <text x="15" y="175" fill="#d4d4d4">wbs_cyc_i</text>
  <path d="M 110 185 h 48 l 4 -15 h 156 l 4 15 h 108" fill="none" stroke="#d4d4d4" stroke-width="1.5"/>
  
  <!-- STB -->
  <text x="15" y="215" fill="#d4d4d4">wbs_stb_i</text>
  <path d="M 110 225 h 48 l 4 -15 h 156 l 4 15 h 108" fill="none" stroke="#d4d4d4" stroke-width="1.5"/>
  
  <!-- WE -->
  <text x="15" y="255" fill="#d4d4d4">wbs_we_i</text>
  <path d="M 110 265 h 48 l 4 -15 h 156 l 4 15 h 108" fill="none" stroke="#d4d4d4" stroke-width="1.5"/>
  
  <!-- ACK -->
  <text x="15" y="295" fill="#d4d4d4">wbs_ack_o</text>
  <path d="M 110 305 h 168 l 4 -15 h 36 l 4 15 h 108" fill="none" stroke="#d4d4d4" stroke-width="1.5"/>
</svg>
