<svg width="600" height="260" xmlns="http://www.w3.org/2000/svg" font-family="monospace" font-size="14" style="background-color: #1e1e1e; color: #d4d4d4; padding: 15px; border-radius: 8px; border: 1px solid #333;">
  <!-- Clock -->
  <text x="10" y="60" fill="#d4d4d4">wb_clk_i</text>
  <path d="M 100 65 h 10 v -15 h 20 v 15 h 20 v -15 h 20 v 15 h 20 v -15 h 20 v 15 h 20 v -15 h 20 v 15 h 20 v -15 h 20 v 15 h 20 v -15 h 20 v 15 h 20 v -15 h 20 v 15 h 10" fill="none" stroke="#d4d4d4" stroke-width="1.5"/>
  <!-- ADR -->
  <text x="10" y="90" fill="#d4d4d4">wbs_adr_i</text>
  <path d="M 100 87.5 h 48" fill="none" stroke="#d4d4d4" stroke-width="1.5"/>
  <polygon points="148,87.5 152,80 308,80 312,87.5 308,95 152,95" fill="#333" stroke="#d4d4d4" stroke-width="1.5"/>
  <text x="230" y="92" fill="#d4d4d4" text-anchor="middle" font-family="sans-serif" font-size="12">ADR1</text>
  <path d="M 312 87.5 h 78" fill="none" stroke="#d4d4d4" stroke-width="1.5"/>
  <!-- DAT_I -->
  <text x="10" y="120" fill="#d4d4d4">wbs_dat_i</text>
  <path d="M 100 117.5 h 48" fill="none" stroke="#d4d4d4" stroke-width="1.5"/>
  <polygon points="148,117.5 152,110 308,110 312,117.5 308,125 152,125" fill="#333" stroke="#d4d4d4" stroke-width="1.5"/>
  <text x="230" y="122" fill="#d4d4d4" text-anchor="middle" font-family="sans-serif" font-size="12">DAT1</text>
  <path d="M 312 117.5 h 78" fill="none" stroke="#d4d4d4" stroke-width="1.5"/>
  <!-- CYC -->
  <text x="10" y="150" fill="#d4d4d4">wbs_cyc_i</text>
  <path d="M 100 155 h 48 l 4 -15 h 156 l 4 15 h 78" fill="none" stroke="#d4d4d4" stroke-width="1.5"/>
  <!-- STB -->
  <text x="10" y="180" fill="#d4d4d4">wbs_stb_i</text>
  <path d="M 100 185 h 48 l 4 -15 h 156 l 4 15 h 78" fill="none" stroke="#d4d4d4" stroke-width="1.5"/>
  <!-- WE -->
  <text x="10" y="210" fill="#d4d4d4">wbs_we_i</text>
  <path d="M 100 215 h 48 l 4 -15 h 156 l 4 15 h 78" fill="none" stroke="#d4d4d4" stroke-width="1.5"/>
  <!-- ACK -->
  <text x="10" y="240" fill="#d4d4d4">wbs_ack_o</text>
  <path d="M 100 245 h 168 l 4 -15 h 36 l 4 15 h 78" fill="none" stroke="#d4d4d4" stroke-width="1.5"/>
</svg>
